<svg display="none"
    xmlns="http://www.w3.org/2000/svg">
    <symbol viewBox="0 0 156 156" id="youtube-icon">
        <path fill-rule="evenodd" clip-rule="evenodd" d="M48.5371 18.6818C66.9133 15.6674 89.0865 15.6674 107.463 18.6818C124.159 21.4205 137.096 34.9884 139.571 49.6031C142.567 67.295 142.567 88.7048 139.571 106.397C137.096 121.011 124.159 134.579 107.463 137.318C89.0865 140.332 66.9133 140.332 48.5371 137.318C31.8416 134.579 18.9043 121.011 16.429 106.397C13.4326 88.7048 13.4329 67.295 16.4291 49.6032C18.9041 34.9884 31.8416 21.4205 48.5371 18.6818ZM109.452 2.42307C89.7566 -0.807689 66.2439 -0.807689 46.5479 2.42307C25.1717 5.92953 6.38295 23.5873 2.51224 46.4433C-0.83724 66.2219 -0.837609 89.7779 2.51231 109.556C6.3833 132.413 25.1716 150.07 46.5479 153.577C66.2439 156.808 89.7566 156.808 109.452 153.577C130.829 150.07 149.617 132.413 153.488 109.556C156.837 89.7779 156.837 66.2219 153.488 46.4434C149.617 23.5872 130.829 5.92953 109.452 2.42307ZM67.7514 38.3263C65.5752 36.6466 62.7779 36.4901 60.4722 37.9189C58.1666 39.3476 56.7272 42.1298 56.7272 45.1578V110.842C56.7272 113.87 58.1666 116.653 60.4722 118.081C62.7779 119.51 65.5752 119.353 67.7514 117.674L110.297 84.8318C112.27 83.3088 113.454 80.7455 113.454 77.9999C113.454 75.2543 112.27 72.691 110.297 71.1679L67.7514 38.3263ZM93.58 77.9999L70.909 95.5006V60.4993L93.58 77.9999Z"/>
    </symbol>

    <symbol viewBox="0 0 156 156" id="linkedin-icon">
        <path fill-rule="evenodd" clip-rule="evenodd" d="M31.2 0C13.9687 0 0 13.9687 0 31.2V124.8C0 142.031 13.9687 156 31.2 156H124.8C142.031 156 156 142.031 156 124.8V31.2C156 13.9687 142.031 0 124.8 0H31.2ZM15.6 31.2C15.6 22.5844 22.5844 15.6 31.2 15.6H124.8C133.416 15.6 140.4 22.5844 140.4 31.2V124.8C140.4 133.416 133.416 140.4 124.8 140.4H31.2C22.5844 140.4 15.6 133.416 15.6 124.8V31.2ZM54.6 70.2C54.6 65.8921 51.1078 62.4 46.8 62.4C42.4922 62.4 39 65.8921 39 70.2V117C39 121.308 42.4922 124.8 46.8 124.8C51.1078 124.8 54.6 121.308 54.6 117V70.2ZM58.5 42.9C58.5 49.3618 53.2618 54.6 46.8 54.6C40.3382 54.6 35.1 49.3618 35.1 42.9C35.1 36.4382 40.3382 31.2 46.8 31.2C53.2618 31.2 58.5 36.4382 58.5 42.9ZM78 62.4C80.6481 62.4 82.9881 63.7198 84.3983 65.7376C88.3966 63.5716 92.8481 62.4 97.5 62.4C114.343 62.4 124.8 77.4212 124.8 90.2569V90.3162V90.3747V90.434V90.4933V90.5525V90.6126V90.6719V90.7319V90.792V90.8521V90.9129V90.973V91.0338V91.0946V91.1555V91.2163V91.2772V91.3388V91.4004V91.4612V91.5236V91.5853V91.6469V91.7093V91.7709V91.8333V91.8957V91.9589V92.0213V92.0845V92.1469V92.21V92.2732V92.3364V92.4004V92.4635V92.5275V92.5907V92.6546V92.7186V92.7833V92.8473V92.9113V92.976V93.0407V93.1047V93.1694V93.235V93.2997V93.3644V93.43V93.4955V93.5602V93.6257V93.6913V93.7568V93.8231V93.8886V93.9549V94.0204V94.0867V94.153V94.2193V94.2856V94.3519V94.4182V94.4853V94.5516V94.6187V94.6858V94.7528V94.8191V94.887V94.9541V95.0212V95.0882V95.1561V95.2232V95.291V95.3581V95.426V95.4938V95.5617V95.6296V95.6974V95.7653V95.8339V95.9018V95.9704V96.0383V96.1069V96.1748V96.2434V96.3121V96.3807V96.4493V96.518V96.5866V96.6553V96.7239V96.7925V96.862V96.9306V97V97.0687V97.1381V97.2067V97.2761V97.3456V97.415V97.4836V97.553V97.6225V97.6919V97.7613V97.8307V97.9001V97.9696V98.0398V98.1092V98.1786V98.248V98.3182V98.3876V98.4571V98.5273V98.5967V98.6669V98.7363V98.8057V98.8759V98.9461V99.0155V99.0857V99.1552V99.2254V99.2956V99.365V99.4352V99.5046V99.5748V99.645V99.7144V99.7846V99.8548V99.9242V99.9944V100.065V100.135V100.204V100.274V100.345V100.414V100.484V100.554V100.624V100.694V100.764V100.834V100.903V100.973V101.044V101.113V101.183V101.253V101.322V101.392V101.462V101.532V101.601V101.671V101.74V101.81V101.88V101.949V102.019V102.088V102.157V102.227V102.296V102.366V102.435V102.504V102.573V102.643V102.712V102.781V102.85V102.919V102.988V103.057V103.126V103.195V103.263V103.332V103.401V103.469V103.538V103.607V103.675V103.744V103.812V103.88V103.948V104.017V104.085V104.153V104.22V104.288V104.356V104.424V104.492V104.56V104.628V104.695V104.763V104.83V104.897V104.965V105.032V105.099V105.165V105.232V105.299V105.366V105.433V105.499V105.566V105.632V105.699V105.765V105.831V105.897V105.963V106.029V106.095V106.16V106.226V106.291V106.357V106.422V106.487V106.553V106.617V106.682V106.747V106.812V106.876V106.941V107.005V107.07V107.134V107.198V107.262V107.326V107.39V107.453V107.517V107.58V107.643V107.706V107.769V107.832V107.895V107.957V108.02V108.082V108.145V108.207V108.269V108.33V108.393V108.454V108.515V108.577V108.638V108.699V108.76V108.821V108.882V108.942V109.003V109.063V109.123V109.183V109.243V109.302V109.362V109.422V109.481V109.539V109.599V109.657V109.716V109.774V109.833V109.891V109.949V110.007V110.064V110.122V110.179V110.237V110.294V110.35V110.407V110.464V110.52V110.576V110.632V110.688V110.744V110.799V110.854V110.91V110.964V111.019V111.074V111.128V111.183V111.237V111.29V111.344V111.398V111.451V111.504V111.557V111.61V111.662V111.715V111.767V111.819V111.872V111.923V111.974V112.025V112.077V112.127V112.178V112.228V112.279V112.329V112.378V112.428V112.478V112.527V112.576V112.624V112.673V112.721V112.769V112.818V112.865V112.913V112.96V113.007V113.054V113.1V113.147V113.193V113.239V113.285V113.33V113.375V113.421V113.465V113.509V113.554V113.598V113.642V113.686V113.729V113.772V113.815V113.858V113.9V113.943V113.985V114.027V114.068V114.109V114.151V114.191V114.232V114.272V114.312V114.352V114.392V114.431V114.47V114.509V114.547V114.585V114.623V114.661V114.698V114.736V114.772V114.809V114.846V114.882V114.917V114.953V114.988V115.023V115.059V115.093V115.127V115.162V115.195V115.229V115.261V115.294V115.327V115.36V115.392V115.423V115.455V115.486V115.516V115.548V115.578V115.608V115.637V115.667V115.696V115.725V115.754V115.782V115.81V115.838V115.865V115.892V115.919V115.945V115.972V115.998V116.023V116.048V116.073V116.098V116.123V116.147V116.17V116.193V116.217V116.24V116.262V116.285V116.307V116.328V116.349V116.37V116.391V116.411V116.431V116.45V116.47V116.488V116.507V116.526V116.544V116.562V116.579V116.595V116.612V116.629V116.644V116.66V116.676V116.69V116.705V116.719V116.733V116.747V116.761V116.773V116.785V116.798V116.81V116.821V116.832V116.843V116.854V116.864V116.874V116.883V116.892V116.901V116.91V116.917V116.932V116.945V116.958V116.968V116.977V116.988V116.997C124.8 121.305 121.308 124.8 117 124.8C112.692 124.8 109.2 121.308 109.2 117V116.991V116.981V116.973V116.963V116.952V116.939V116.925V116.91V116.901V116.892V116.883V116.874V116.864V116.854V116.843V116.832V116.821V116.81V116.798V116.785V116.773V116.761V116.747V116.733V116.719V116.705V116.69V116.676V116.66V116.644V116.629V116.612V116.595V116.579V116.562V116.544V116.526V116.507V116.488V116.47V116.45V116.431V116.411V116.391V116.37V116.349V116.328V116.307V116.285V116.262V116.24V116.217V116.193V116.17V116.147V116.123V116.098V116.073V116.048V116.023V115.998V115.972V115.945V115.919V115.892V115.865V115.838V115.81V115.782V115.754V115.725V115.696V115.667V115.637V115.608V115.578V115.548V115.516V115.486V115.455V115.423V115.392V115.36V115.327V115.294V115.261V115.229V115.195V115.162V115.127V115.093V115.059V115.023V114.988V114.953V114.917V114.882V114.846V114.809V114.772V114.736V114.698V114.661V114.623V114.585V114.547V114.509V114.47V114.431V114.392V114.352V114.312V114.272V114.232V114.191V114.151V114.109V114.068V114.027V113.985V113.943V113.9V113.858V113.815V113.772V113.729V113.686V113.642V113.598V113.554V113.509V113.465V113.421V113.375V113.33V113.285V113.239V113.193V113.147V113.1V113.054V113.007V112.96V112.913V112.865V112.818V112.769V112.721V112.673V112.624V112.576V112.527V112.478V112.428V112.378V112.329V112.279V112.228V112.178V112.127V112.077V112.025V111.974V111.923V111.872V111.819V111.767V111.715V111.662V111.61V111.557V111.504V111.451V111.398V111.344V111.29V111.237V111.183V111.128V111.074V111.019V110.964V110.91V110.854V110.799V110.744V110.688V110.632V110.576V110.52V110.464V110.407V110.35V110.294V110.237V110.179V110.122V110.064V110.007V109.949V109.891V109.833V109.774V109.716V109.657V109.599V109.539V109.481V109.422V109.362V109.302V109.243V109.183V109.123V109.063V109.003V108.942V108.882V108.821V108.76V108.699V108.638V108.577V108.515V108.454V108.393V108.33V108.269V108.207V108.145V108.082V108.02V107.957V107.895V107.832V107.769V107.706V107.643V107.58V107.517V107.453V107.39V107.326V107.262V107.198V107.134V107.07V107.005V106.941V106.876V106.812V106.747V106.682V106.617V106.553V106.487V106.422V106.357V106.291V106.226V106.16V106.095V106.029V105.963V105.897V105.831V105.765V105.699V105.632V105.566V105.499V105.433V105.366V105.299V105.232V105.165V105.099V105.032V104.965V104.897V104.83V104.763V104.695V104.628V104.56V104.492V104.424V104.356V104.288V104.22V104.153V104.085V104.017V103.948V103.88V103.812V103.744V103.675V103.607V103.538V103.469V103.401V103.332V103.263V103.195V103.126V103.057V102.988V102.919V102.85V102.781V102.712V102.643V102.573V102.504V102.435V102.366V102.296V102.227V102.157V102.088V102.019V101.949V101.88V101.81V101.74V101.671V101.601V101.532V101.462V101.392V101.322V101.253V101.183V101.113V101.044V100.973V100.903V100.834V100.764V100.694V100.624V100.554V100.484V100.414V100.345V100.274V100.204V100.135V100.065V99.9944V99.9242V99.8548V99.7846V99.7144V99.645V99.5748V99.5046V99.4352V99.365V99.2956V99.2254V99.1552V99.0857V99.0155V98.9461V98.8759V98.8057V98.7363V98.6669V98.5967V98.5273V98.4571V98.3876V98.3182V98.248V98.1786V98.1092V98.0398V97.9696V97.9001V97.8307V97.7613V97.6919V97.6225V97.553V97.4836V97.415V97.3456V97.2761V97.2067V97.1381V97.0687V97V96.9306V96.862V96.7925V96.7239V96.6553V96.5866V96.518V96.4493V96.3807V96.3121V96.2434V96.1748V96.1069V96.0383V95.9704V95.9018V95.8339V95.7653V95.6974V95.6296V95.5617V95.4938V95.426V95.3581V95.291V95.2232V95.1561V95.0882V95.0212V94.9541V94.887V94.8191V94.7528V94.6858V94.6187V94.5516V94.4853V94.4182V94.3519V94.2856V94.2193V94.153V94.0867V94.0204V93.9549V93.8886V93.8231V93.7568V93.6913V93.6257V93.5602V93.4955V93.43V93.3644V93.2997V93.235V93.1694V93.1047V93.0407V92.976V92.9113V92.8473V92.7833V92.7186V92.6546V92.5907V92.5275V92.4635V92.4004V92.3364V92.2732V92.21V92.1469V92.0845V92.0213V91.9589V91.8957V91.8333V91.7709V91.7093V91.6469V91.5853V91.5236V91.4612V91.4004V91.3388V91.2772V91.2163V91.1555V91.0946V91.0338V90.973V90.9129V90.8521V90.792V90.7319V90.6719V90.6126V90.5525V90.4933V90.434V90.3747V90.3162V90.2569C109.2 84.265 104.057 78 97.5 78C93.412 78 88.8997 80.2222 85.8 85.5122V85.5332V85.6136V85.6939V85.7743V85.8554V85.9357V86.0168V86.098V86.1799V86.261V86.3421V86.424V86.5059V86.5878V86.6697V86.7516V86.8343V86.917V86.9989V87.0815V87.1642V87.2469V87.3304V87.413V87.4965V87.58V87.6626V87.7469V87.8303V87.9138V87.9973V88.0815V88.1657V88.2492V88.3334V88.4177V88.5019V88.5869V88.6712V88.7562V88.8404V88.9255V89.0105V89.0955V89.1805V89.2655V89.3506V89.4364V89.5214V89.6072V89.6922V89.778V89.8638V89.9496V90.0354V90.1212V90.207V90.2936V90.3794V90.4652V90.5518V90.6383V90.7241V90.8107V90.8973V90.9839V91.0705V91.157V91.2436V91.3302V91.4176V91.5041V91.5907V91.6781V91.7647V91.852V91.9394V92.026V92.1133V92.2007V92.288V92.3746V92.462V92.5493V92.6367V92.7248V92.8122V92.8996V92.9869V93.0743V93.1616V93.2498V93.3371V93.4245V93.5126V93.6V93.6881V93.7755V93.8636V93.951V94.0384V94.1265V94.2146V94.302V94.3901V94.4775V94.5656V94.653V94.7411V94.8293V94.9166V95.0048V95.0921V95.1803V95.2684V95.3558V95.4439V95.5313V95.6194V95.7068V95.7949V95.8823V95.9704V96.0578V96.1459V96.2333V96.3214V96.4088V96.4969V96.5843V96.6716V96.759V96.8471V96.9345V97.0219V97.1092V97.1966V97.2839V97.3713V97.4587V97.546V97.6334V97.7207V97.8081V97.8947V97.982V98.0694V98.156V98.2433V98.3299V98.4173V98.5039V98.5904V98.677V98.7636V98.851V98.9375V99.0233V99.1099V99.1965V99.2831V99.3689V99.4555V99.5413V99.6278V99.7136V99.7994V99.8852V99.971V100.057V100.143V100.228V100.313V100.399V100.484V100.57V100.655V100.74V100.825V100.91V100.995V101.079V101.164V101.249V101.334V101.418V101.502V101.586V101.671V101.755V101.838V101.923V102.006V102.09V102.173V102.256V102.34V102.423V102.507V102.59V102.672V102.755V102.838V102.92V103.003V103.086V103.167V103.249V103.331V103.413V103.495V103.577V103.658V103.739V103.821V103.902V103.983V104.064V104.145V104.225V104.306V104.386V104.466V104.546V104.626V104.706V104.785V104.865V104.944V105.023V105.103V105.181V105.26V105.338V105.417V105.495V105.573V105.651V105.729V105.807V105.884V105.961V106.039V106.116V106.192V106.27V106.346V106.422V106.498V106.575V106.65V106.726V106.802V106.876V106.952V107.027V107.102V107.176V107.251V107.325V107.399V107.473V107.546V107.62V107.693V107.766V107.84V107.912V107.985V108.057V108.129V108.201V108.273V108.344V108.415V108.487V108.558V108.628V108.699V108.769V108.84V108.909V108.979V109.049V109.118V109.187V109.255V109.324V109.393V109.461V109.528V109.596V109.664V109.731V109.798V109.865V109.932V109.998V110.064V110.131V110.196V110.262V110.326V110.391V110.456V110.521V110.585V110.649V110.712V110.776V110.84V110.903V110.965V111.028V111.09V111.152V111.214V111.276V111.336V111.397V111.458V111.519V111.579V111.639V111.698V111.758V111.818V111.876V111.935V111.993V112.052V112.109V112.166V112.224V112.281V112.338V112.394V112.45V112.506V112.562V112.617V112.672V112.727V112.781V112.836V112.889V112.943V112.996V113.049V113.102V113.155V113.207V113.258V113.31V113.361V113.412V113.463V113.513V113.563V113.612V113.662V113.711V113.76V113.808V113.857V113.904V113.952V113.999V114.046V114.092V114.139V114.185V114.23V114.275V114.321V114.365V114.41V114.453V114.497V114.541V114.584V114.626V114.669V114.71V114.752V114.793V114.834V114.875V114.915V114.955V114.995V115.034V115.073V115.111V115.149V115.187V115.225V115.262V115.299V115.335V115.371V115.406V115.442V115.477V115.512V115.546V115.58V115.613V115.647V115.679V115.711V115.744V115.775V115.807V115.838V115.868V115.899V115.928V115.958V115.987V116.016V116.044V116.072V116.099V116.126V116.153V116.179V116.205V116.231V116.256V116.281V116.305V116.329V116.353V116.376V116.399V116.421V116.443V116.464V116.486V116.506V116.527V116.547V116.566V116.585V116.604V116.622V116.64V116.658V116.675V116.691V116.707V116.723V116.739V116.754V116.768V116.782V116.796V116.809V116.821V116.834V116.846V116.857V116.868V116.879V116.889V116.899V116.909V116.917V116.926V116.934V116.949V116.961V116.972V116.981V116.991V116.999C85.8 121.307 82.3079 124.8 78 124.8C73.6921 124.8 70.2 121.308 70.2 117V116.991V116.981V116.972V116.961V116.949V116.934V116.926V116.917V116.909V116.899V116.889V116.879V116.868V116.857V116.846V116.834V116.821V116.809V116.796V116.782V116.768V116.754V116.739V116.723V116.707V116.691V116.675V116.658V116.64V116.622V116.604V116.585V116.566V116.547V116.527V116.506V116.486V116.464V116.443V116.421V116.399V116.376V116.353V116.329V116.305V116.281V116.256V116.231V116.205V116.179V116.153V116.126V116.099V116.072V116.044V116.016V115.987V115.958V115.928V115.899V115.868V115.838V115.807V115.775V115.744V115.711V115.679V115.647V115.613V115.58V115.546V115.512V115.477V115.442V115.406V115.371V115.335V115.299V115.262V115.225V115.187V115.149V115.111V115.073V115.034V114.995V114.955V114.915V114.875V114.834V114.793V114.752V114.71V114.669V114.626V114.584V114.541V114.497V114.453V114.41V114.365V114.321V114.275V114.23V114.185V114.139V114.092V114.046V113.999V113.952V113.904V113.857V113.808V113.76V113.711V113.662V113.612V113.563V113.513V113.463V113.412V113.361V113.31V113.258V113.207V113.155V113.102V113.049V112.996V112.943V112.889V112.836V112.781V112.727V112.672V112.617V112.562V112.506V112.45V112.394V112.338V112.281V112.224V112.166V112.109V112.052V111.993V111.935V111.876V111.818V111.758V111.698V111.639V111.579V111.519V111.458V111.397V111.336V111.276V111.214V111.152V111.09V111.028V110.965V110.903V110.84V110.776V110.712V110.649V110.585V110.521V110.456V110.391V110.326V110.262V110.196V110.131V110.064V109.998V109.932V109.865V109.798V109.731V109.664V109.596V109.528V109.461V109.393V109.324V109.255V109.187V109.118V109.049V108.979V108.909V108.84V108.769V108.699V108.628V108.558V108.487V108.415V108.344V108.273V108.201V108.129V108.057V107.985V107.912V107.84V107.766V107.693V107.62V107.546V107.473V107.399V107.325V107.251V107.176V107.102V107.027V106.952V106.876V106.802V106.726V106.65V106.575V106.498V106.422V106.346V106.27V106.192V106.116V106.039V105.961V105.884V105.807V105.729V105.651V105.573V105.495V105.417V105.338V105.26V105.181V105.103V105.023V104.944V104.865V104.785V104.706V104.626V104.546V104.466V104.386V104.306V104.225V104.145V104.064V103.983V103.902V103.821V103.739V103.658V103.577V103.495V103.413V103.331V103.249V103.167V103.086V103.003V102.92V102.838V102.755V102.672V102.59V102.507V102.423V102.34V102.256V102.173V102.09V102.006V101.923V101.838V101.755V101.671V101.586V101.502V101.418V101.334V101.249V101.164V101.079V100.995V100.91V100.825V100.74V100.655V100.57V100.484V100.399V100.313V100.228V100.143V100.057V99.971V99.8852V99.7994V99.7136V99.6278V99.5413V99.4555V99.3689V99.2831V99.1965V99.1099V99.0233V98.9375V98.851V98.7636V98.677V98.5904V98.5039V98.4173V98.3299V98.2433V98.156V98.0694V97.982V97.8947V97.8081V97.7207V97.6334V97.546V97.4587V97.3713V97.2839V97.1966V97.1092V97.0219V96.9345V96.8471V96.759V96.6716V96.5843V96.4969V96.4088V96.3214V96.2333V96.1459V96.0578V95.9704V95.8823V95.7949V95.7068V95.6194V95.5313V95.4439V95.3558V95.2684V95.1803V95.0921V95.0048V94.9166V94.8293V94.7411V94.653V94.5656V94.4775V94.3901V94.302V94.2146V94.1265V94.0384V93.951V93.8636V93.7755V93.6881V93.6V93.5126V93.4245V93.3371V93.2498V93.1616V93.0743V92.9869V92.8996V92.8122V92.7248V92.6367V92.5493V92.462V92.3746V92.288V92.2007V92.1133V92.026V91.9394V91.852V91.7647V91.6781V91.5907V91.5041V91.4176V91.3302V91.2436V91.157V91.0705V90.9839V90.8973V90.8107V90.7241V90.6383V90.5518V90.4652V90.3794V90.2936V90.207V90.1212V90.0354V89.9496V89.8638V89.778V89.6922V89.6072V89.5214V89.4364V89.3506V89.2655V89.1805V89.0955V89.0105V88.9255V88.8404V88.7562V88.6712V88.5869V88.5019V88.4177V88.3334V88.2492V88.1657V88.0815V87.9973V87.9138V87.8303V87.7469V87.6626V87.58V87.4965V87.413V87.3304V87.2469V87.1642V87.0815V86.9989V86.917V86.8343V86.7516V86.6697V86.5878V86.5059V86.424V86.3421V86.261V86.1799V86.098V86.0168V85.9357V85.8554V85.7743V85.6939V85.6136V85.5332V85.4529V85.3726V85.2922V85.2127V85.1331V85.0535V84.974V84.8952V84.8156V84.7369V84.6581V84.5793V84.5013V84.4225V84.3445V84.2665V84.1885V84.1105V84.0333V83.9561V83.8789V83.8016V83.7244V83.648V83.5715V83.5411V83.5099V83.4795V83.4483V83.4179V83.3867V83.3555V83.3243V83.2931V83.2619V83.2307V83.1995V83.1683V83.1371V83.1051V83.0739V83.0419V83.0099V82.9787V82.9468V82.9148V82.8828V82.8508V82.8188V82.7869V82.7549V82.7229V82.6901V82.6582V82.6254V82.5934V82.5607V82.5279V82.4959V82.4632V82.4304V82.3976V82.3649V82.3321V82.2994V82.2666V82.2331V82.2003V82.1675V82.134V82.1012V82.0677V82.0349V82.0014V81.9679V81.9351V81.9016V81.868V81.8345V81.8009V81.7674V81.7339V81.7003V81.6668V81.6325V81.5989V81.5654V81.5318V81.4975V81.464V81.4297V81.3961V81.3618V81.3275V81.2939V81.2596V81.2253V81.1918V81.1574V81.1231V81.0888V81.0545V81.0202V80.9858V80.9515V80.9172V80.8829V80.8486V80.8135V80.7791V80.7448V80.7105V80.6754V80.6411V80.6068V80.5717V80.5373V80.5022V80.4679V80.4328V80.3985V80.3634V80.3291V80.294V80.2589V80.2246V80.1895V80.1544V80.12V80.0849V80.0498V80.0147V79.9804V79.9453V79.9102V79.8751V79.84V79.8049V79.7706V79.7355V79.7004V79.6653V79.6302V79.5951V79.56V79.5249V79.4898V79.4547V79.4196V79.3845V79.3494V79.3143V79.2792V79.2441V79.209V79.1739V79.1388V79.1037V79.0686V79.0335V78.9984V78.9633V78.9282V78.8931V78.858V78.8229V78.787V78.7519V78.7168V78.6817V78.6466V78.6115V78.5764V78.5413V78.5062V78.4711V78.4368V78.4017V78.3666V78.3315V78.2964V78.2613V78.2262V78.1911V78.156V78.1209V78.0866V78.0515V78.0164V77.9813V77.947V77.9119V77.8768V77.8417V77.8073V77.7722V77.7371V77.7028V77.6677V77.6334V77.5983V77.564V77.5289V77.4946V77.4595V77.4251V77.3908V77.3557V77.3214V77.2871V77.252V77.2177V77.1833V77.149V77.1147V77.0804V77.0461V77.0117V76.9774V76.9431V76.9088V76.8745V76.8401V76.8066V76.7723V76.738V76.7036V76.6701V76.6358V76.6022V76.5679V76.5344V76.5001V76.4665V76.433V76.3994V76.3651V76.3316V76.298V76.2645V76.231V76.1974V76.1639V76.1303V76.0976V76.064V76.0305V75.9977V75.9642V75.9307V75.8979V75.8651V75.8316V75.7988V75.7661V75.7333V75.7006V75.667V75.6343V75.6023V75.5695V75.5368V75.504V75.472V75.4393V75.4065V75.3745V75.3425V75.3098V75.2778V75.2458V75.2138V75.1819V75.1499V75.1179V75.0859V75.0539V75.0227V74.9908V74.9588V74.9276V74.8964V74.8644V74.8332V74.802V74.7708V74.7396V74.7084V74.6772V74.646V74.6156V74.5844V74.554V74.5228V74.4923V74.4619V74.4307V74.4003V74.3699V74.3402V74.3098V74.2794V74.249V74.2193V74.1889V74.1593V74.1296V74.1V74.0704V74.0407V74.0111V73.9814V73.9518V73.9229V73.8933V73.8644V73.8356V73.8059V73.7771V73.7482V73.7194V73.6913V73.6624V73.6336V73.6055V73.5766V73.5485V73.5205V73.4924V73.4643V73.4362V73.4081V73.3808V73.3528V73.3255V73.2974V73.2701V73.2428V73.2155V73.1882V73.1617V73.1344V73.1078V73.0805V73.054V73.0275V73.001V72.9745V72.9479V72.9214V72.8957V72.8692V72.8434V72.8177V72.7919V72.7662V72.7405V72.7147V72.6898V72.664V72.6391V72.6141V72.5891V72.5642V72.5392V72.5143V72.4901V72.4651V72.4409V72.4168V72.3926V72.3684V72.3442V72.3208V72.2966V72.2732V72.2498V72.2264V72.203V72.1796V72.1562V72.1336V72.1102V72.0876V72.065V72.0424V72.0197V71.9979V71.9753V71.9534V71.9308V71.909V71.8871V71.8661V71.8442V71.8232V71.8013V71.7803V71.7592V71.7382V71.7171V71.6968V71.6758V71.6555V71.6352V71.6149V71.5946V71.5751V71.5549V71.5354V71.5159V71.4964V71.4769V71.4574V71.4386V71.4191V71.4004V71.3817V71.363V71.3443V71.3263V71.3076V71.2897V71.2717V71.2538V71.2366V71.2187V71.2015V71.1836V71.1664V71.1493V71.1329V71.1157V71.0993V71.083V71.0666V71.0502V71.0338V71.0182V71.0018V70.9862V70.9706V70.9558V70.9402V70.9254V70.9098V70.895V70.8809V70.8661V70.8513V70.8373V70.8232V70.8092V70.7951V70.7819V70.7678V70.7546V70.7413V70.7281V70.7156V70.7023V70.6898V70.6774V70.6649V70.6524V70.6407V70.629V70.6173V70.6056V70.5939V70.5822V70.5713V70.5604V70.5494V70.5385V70.5284V70.5182V70.5073V70.498V70.4878V70.4777V70.4683V70.459V70.4496V70.4402V70.4317V70.4231V70.4145V70.4059V70.3973V70.3895V70.381V70.3732V70.3583V70.3443V70.3303V70.317V70.3045V70.2928V70.2819V70.271V70.2616V70.2523V70.2406V70.2328V70.2234V70.2156V70.2062C70.2 65.8983 73.6921 62.4 78 62.4Z"/>
    </symbol>

    <symbol viewBox="0 0 156 156" id="instagram-icon">
        <path fill-rule="evenodd" clip-rule="evenodd" d="M45.7833 0.957284C33.0858 1.53019 22.0803 4.63456 13.1937 13.4837C4.27592 22.3793 1.2101 33.4284 0.635766 45.9937C0.278744 53.8365 -1.80893 113.086 4.24488 128.625C8.32733 139.107 16.3678 147.167 26.9465 151.263C31.8827 153.183 37.5175 154.483 45.7833 154.862C114.898 157.99 140.518 156.287 151.321 128.625C153.238 123.701 154.558 118.071 154.923 109.826C158.081 40.5342 154.411 25.5149 142.365 13.4837C132.811 3.95323 121.572 -2.53437 45.7833 0.957284ZM46.4196 140.926C38.8523 140.586 34.7467 139.325 32.0069 138.264C25.1149 135.585 19.9381 130.43 17.276 123.578C12.6658 111.772 14.1948 55.6959 14.6062 46.6222C15.0098 37.7342 16.8103 29.6113 23.0815 23.3403C30.8428 15.5982 40.8703 11.8039 109.146 14.8853C118.056 15.2878 126.198 17.0847 132.485 23.3403C140.246 31.0823 144.096 41.187 140.96 109.201C140.619 116.749 139.354 120.845 138.29 123.578C131.266 141.579 115.107 144.077 46.4196 140.926ZM109.899 36.5789C109.899 41.7042 114.067 45.8719 119.213 45.8719C124.359 45.8719 128.534 41.7042 128.534 36.5789C128.534 31.4537 124.359 27.2898 119.213 27.2898C114.067 27.2898 109.899 31.4537 109.899 36.5789ZM37.9288 77.9058C37.9288 99.8623 55.7721 117.664 77.7831 117.664C99.7942 117.664 117.637 99.8623 117.637 77.9058C117.637 55.9494 99.7942 38.1595 77.7831 38.1595C55.7721 38.1595 37.9288 55.9494 37.9288 77.9058ZM51.9147 77.9058C51.9147 63.6605 63.4946 52.1027 77.7831 52.1027C92.0717 52.1027 103.652 63.6605 103.652 77.9058C103.652 92.159 92.0717 103.72 77.7831 103.72C63.4946 103.72 51.9147 92.159 51.9147 77.9058Z"/>
    </symbol>

    <symbol viewBox="0 0 156 156" id="facebook-icon">
        <path fill-rule="evenodd" clip-rule="evenodd" d="M0 31.2C0 13.9687 13.9687 0 31.2 0H124.8C142.031 0 156 13.9687 156 31.2V124.8C156 142.031 142.031 156 124.8 156H31.2C13.9687 156 0 142.031 0 124.8V31.2ZM31.2 15.6C22.5844 15.6 15.6 22.5844 15.6 31.2V124.8C15.6 133.416 22.5844 140.4 31.2 140.4H78V85.8H70.2C65.8921 85.8 62.4 82.3079 62.4 78C62.4 73.6921 65.8921 70.2 70.2 70.2H78V58.5C78 43.4226 90.2226 31.2 105.3 31.2H109.98C114.288 31.2 117.78 34.6922 117.78 39C117.78 43.3078 114.288 46.8 109.98 46.8H105.3C98.8385 46.8 93.6 52.0382 93.6 58.5V70.2H109.98C114.288 70.2 117.78 73.6921 117.78 78C117.78 82.3079 114.288 85.8 109.98 85.8H93.6V140.4H124.8C133.416 140.4 140.4 133.416 140.4 124.8V31.2C140.4 22.5844 133.416 15.6 124.8 15.6H31.2Z"/>
    </symbol>

    <symbol width="33" height="18" viewBox="0 0 33 18" id="burger-icon">
        <line x1="0" y1="2" x2="33" y2="2" stroke="#000" stroke-width="3"/>
        <line x1="0" y1="9" x2="33" y2="9" stroke="#000" stroke-width="3"/>
        <line x1="0" y1="16" x2="33" y2="16" stroke="#000" stroke-width="3"/>
    </symbol>

    <symbol width="25" height="22" viewBox="0 0 25 22" id="cross-icon">
        <line x1="0" y1="0" x2="25" y2="22" stroke="#000" stroke-width="3"/>
        <line x1="0" y1="22" x2="25" y2="0" stroke="#000" stroke-width="3"/>
    </symbol>
</svg>

